<svg width="122" height="84" viewBox="0 0 122 84" fill="none" xmlns="http://www.w3.org/2000/svg">
<path d="M97.6745 35.486C94.1994 35.486 90.8484 36.2304 87.8698 37.5953L81.1678 24.6913V24.5672H81.0437L70.1221 3.59824C69.0051 1.36486 66.7711 0 64.1648 0H55.353V2.85377H64.2889C65.6541 2.85377 67.0193 3.59824 67.6399 4.83901L77.8169 24.4431H39.2187L34.8749 20.2245H38.9705V17.3708H28.0488H21.2228H19.4853V20.2245H21.2228H28.0488C29.2899 20.2245 31.1516 20.5968 32.3927 21.8375L35.1231 24.4431L30.9033 36.2304C28.7935 35.6101 26.5595 35.2378 24.2014 35.2378C10.7976 35.2378 0 46.0325 0 59.4328C0 72.8331 10.9217 83.8759 24.3255 83.8759C37.233 83.8759 47.6582 73.8257 48.4028 61.1699H48.7752C61.5585 61.1699 72.9766 52.6086 76.5758 40.449L80.0508 28.9099L85.3876 39.0842C78.3133 43.3028 73.5972 50.9956 73.5972 59.805C73.5972 73.2053 84.3947 84 97.7986 84C111.202 84 122 73.2053 122 59.805C122 46.4047 111.078 35.486 97.6745 35.486ZM24.3255 80.8981C12.5351 80.8981 2.97863 71.3442 2.97863 59.5569C2.97863 47.7696 12.5351 38.2157 24.3255 38.2157C26.3113 38.2157 28.1729 38.4638 30.0346 38.9601L22.2157 60.9217H45.5483C44.6796 72.2127 35.4954 80.8981 24.3255 80.8981ZM32.765 40.0768C39.8393 43.1787 44.9278 50.003 45.5483 58.192H26.4354L32.765 40.0768ZM48.4028 58.192C47.7823 48.7622 41.9491 40.8213 33.7579 37.3471L37.233 27.421H38.1017L64.6612 52.8567C60.1933 56.2068 54.7324 58.192 48.8993 58.192H48.4028ZM73.8454 39.4564C72.4801 43.9232 69.998 47.7696 66.7711 50.8715L42.1973 27.421H77.3204L73.8454 39.4564ZM97.6745 80.8981C85.884 80.8981 76.3276 71.3442 76.3276 59.5569C76.3276 51.8641 80.4232 45.164 86.5046 41.4417L96.3092 60.3013L98.9156 58.9365L89.1109 40.0768C91.7172 38.9601 94.5717 38.3397 97.5503 38.3397C109.341 38.3397 118.897 47.8936 118.897 59.6809C118.897 71.4682 109.465 80.8981 97.6745 80.8981Z" fill="#FCCD8C"/>
</svg>
