<svg width="87" height="95" viewBox="0 0 87 95" fill="none" xmlns="http://www.w3.org/2000/svg">
<path d="M76.9688 43.4535V17.0577C76.9688 7.71952 69.3221 0 59.795 0H27.3277C17.926 0 10.1539 7.59502 10.1539 17.0577V43.578C4.26212 45.4456 0 50.675 0 56.7759V95H2.8832V82.1756H84.1141V95H86.9973V56.7759C87.1227 50.5504 82.8605 45.3211 76.9688 43.4535ZM13.1624 42.8309V17.0577C13.1624 9.33813 19.5556 2.9882 27.3277 2.9882H59.9203C67.6924 2.9882 74.0856 9.33813 74.0856 17.0577V42.8309H72.456H14.792H13.1624ZM3.00855 79.1874V56.6514C3.00855 50.5505 8.27352 45.6946 14.792 45.6946H72.456C78.9745 45.6946 84.2395 50.675 84.2395 56.6514V79.1874H3.00855Z" fill="#FCCD8C"/>
</svg>
