<svg width="84" height="103" viewBox="0 0 84 103" fill="none" xmlns="http://www.w3.org/2000/svg">
<path d="M0 29.0645V42.4117C0 56.632 10.603 68.3576 24.1996 70.104L17.9626 99.9169H13.0977V102.786H25.0728V99.9169H20.8316L23.9501 85.0728H59.5011L62.6196 99.9169H58.3785V102.786H70.3535V99.9169H65.4886L59.2516 70.104C72.973 68.2329 83.4513 56.5073 83.4513 42.4117V29.0645H0ZM58.8774 82.2038H24.6986L27.1934 70.4782C27.4429 70.4782 27.6923 70.4782 28.0666 70.4782H55.7589C56.0084 70.4782 56.2579 70.4782 56.6321 70.4782L58.8774 82.2038ZM80.707 42.4117C80.707 56.2578 69.4803 67.4844 55.6342 67.4844H27.9418C14.0957 67.4844 2.86905 56.2578 2.86905 42.4117V32.0582H80.707V42.4117Z" fill="#FCCD8C"/>
<path d="M23.3264 23.5759H26.1954C26.1954 21.9543 26.5697 21.2058 27.0686 20.3327C27.6923 19.21 28.316 18.0873 28.316 15.7173C28.316 13.3472 27.6923 12.2245 27.0686 11.1019C26.5697 10.2287 26.1954 9.48026 26.1954 7.85864C26.1954 6.23701 26.5697 5.48857 27.0686 4.61539C27.6923 3.49273 28.316 2.37006 28.316 0H25.447C25.447 1.62162 25.0728 2.37006 24.5738 3.24325C23.9501 4.36591 23.3264 5.48857 23.3264 7.85864C23.3264 10.2287 23.9501 11.3514 24.5738 12.474C25.0728 13.3472 25.447 14.0956 25.447 15.7173C25.447 17.3389 25.0728 18.0873 24.5738 18.9605C24.0749 20.0832 23.3264 21.2058 23.3264 23.5759Z" fill="#FCCD8C"/>
<path d="M39.2931 23.5759H42.1621C42.1621 21.9543 42.5363 21.2058 43.0353 20.3327C43.659 19.21 44.2827 18.0873 44.2827 15.7173C44.2827 13.3472 43.659 12.2245 43.0353 11.1019C42.5363 10.2287 42.1621 9.48026 42.1621 7.85864C42.1621 6.23701 42.5363 5.48857 43.0353 4.61539C43.659 3.49273 44.2827 2.37006 44.2827 0H41.4137C41.4137 1.62162 41.0395 2.37006 40.5405 3.24325C39.9168 4.36591 39.2931 5.48857 39.2931 7.85864C39.2931 10.2287 39.9168 11.3514 40.5405 12.474C41.0395 13.3472 41.4137 14.0956 41.4137 15.7173C41.4137 17.3389 41.0395 18.0873 40.5405 18.9605C39.9168 20.0832 39.2931 21.2058 39.2931 23.5759Z" fill="#FCCD8C"/>
<path d="M55.1353 23.5759H58.0043C58.0043 21.9543 58.3785 21.2058 58.8775 20.3327C59.5012 19.21 60.1249 18.0873 60.1249 15.7173C60.1249 13.3472 59.5012 12.2245 58.8775 11.1019C58.3785 10.2287 58.0043 9.48026 58.0043 7.85864C58.0043 6.23701 58.3785 5.48857 58.8775 4.61539C59.5012 3.49273 60.1249 2.37006 60.1249 0H57.2559C57.2559 1.62162 56.8816 2.37006 56.3827 3.24325C55.759 4.36591 55.1353 5.48857 55.1353 7.85864C55.1353 10.2287 55.759 11.3514 56.3827 12.474C56.8816 13.3472 57.2559 14.0956 57.2559 15.7173C57.2559 17.3389 56.8816 18.0873 56.3827 18.9605C55.759 20.0832 55.1353 21.2058 55.1353 23.5759Z" fill="#FCCD8C"/>
</svg>
