<svg width="120" height="84" viewBox="0 0 120 84" fill="none" xmlns="http://www.w3.org/2000/svg">
<path d="M108.553 0H10.7575C4.76754 0 0 4.87179 0 10.7179V73.0769C0 79.0449 4.88978 83.7949 10.7575 83.7949H55.988V82.3333H56.2325C56.2325 70.2756 65.7675 60.4103 77.6253 59.6795V82.3333H77.8697V83.7949H108.553C114.543 83.7949 119.311 78.9231 119.311 73.0769V10.7179C119.311 4.87179 114.543 0 108.553 0ZM108.553 81.1154H80.4369V56.8782H78.9699C65.2786 56.8782 54.0321 67.5961 53.2986 81.1154H41.5631V59.3141H38.7515V81.1154H10.7575C6.35672 81.1154 2.81163 77.5833 2.81163 73.1987V43.359H38.8738V47.9872H41.6854V35.8077H38.8738V40.4359H2.81163V10.7179C2.81163 6.33333 6.35672 2.80128 10.7575 2.80128H38.7515V25.3333H41.5631V2.80128H77.503V25.3333H80.3146V2.80128H108.431C112.832 2.80128 116.377 6.33333 116.377 10.7179V40.4359H78.7254V43.2372H116.377V73.0769C116.499 77.5833 112.954 81.1154 108.553 81.1154Z" fill="#002531"/>
</svg>
