<svg width="63" height="90" viewBox="0 0 63 90" fill="none" xmlns="http://www.w3.org/2000/svg">
<path d="M62.578 23.0488C62.578 10.3171 52.2581 0 39.523 0H22.8355C10.3199 0 0 10.3171 0 23.0488V39.7317C0 44.561 1.537 49.1707 4.17187 52.9024L4.39144 53.122L30.9597 87.8049H5.26973V90H57.5279V87.8049H31.8379L57.967 53.561C57.967 53.3415 58.1866 53.3415 58.4062 53.122C61.2606 49.1707 62.7976 44.561 62.7976 39.7317V23.0488H62.578Z" fill="#FCCD8C"/>
<path d="M31.6184 22.3906C25.0312 22.3906 19.7615 27.6589 19.7615 34.2443C19.7615 40.8296 25.0312 46.0979 31.6184 46.0979C38.2055 46.0979 43.4753 40.8296 43.4753 34.2443C43.4753 27.6589 38.2055 22.3906 31.6184 22.3906ZM31.6184 44.3418C25.9095 44.3418 21.5181 39.7321 21.5181 34.2443C21.5181 28.7565 26.1291 24.1467 31.6184 24.1467C37.3272 24.1467 41.7187 28.7565 41.7187 34.2443C41.7187 39.7321 37.3272 44.3418 31.6184 44.3418Z" fill="#002531"/>
<path d="M52.6973 12.9513C52.4777 12.7317 52.0385 12.7317 51.819 12.9513C47.6471 15.8049 45.2318 20.4147 45.2318 25.2439V36C45.2318 37.0976 45.671 38.1952 46.5492 39.0732L48.0862 40.6098V52.9025C48.0862 54.2195 49.1841 55.3171 50.5015 55.3171C51.819 55.3171 52.9168 54.2195 52.9168 52.9025V13.6098C53.1364 13.3903 52.9168 13.1708 52.6973 12.9513ZM51.3798 53.122C51.3798 53.561 50.9407 54 50.5015 54C50.0624 54 49.6233 53.561 49.6233 53.122V40.3903C49.6233 40.1708 49.6233 39.9513 49.4037 39.7317L47.6471 37.9756C47.208 37.5366 46.7688 36.8781 46.7688 36V25.2439C46.7688 21.5122 48.5254 17.7805 51.3798 15.3659V53.122Z" fill="#002531"/>
<path d="M29.8618 27.6589C29.6423 27.2199 29.2031 27.0004 28.764 27.2199C25.9095 28.3175 24.153 31.1711 24.153 34.2443C24.153 34.6833 24.5921 35.1223 25.0312 35.1223C25.4704 35.1223 25.9095 34.6833 25.9095 34.2443C25.9095 31.8297 27.4465 29.6345 29.6423 28.7565C29.8618 28.537 29.8618 27.8784 29.8618 27.6589Z" fill="#002531"/>
<path d="M31.6184 26.561C31.1793 26.561 30.7401 27.0001 30.7401 27.4391C30.7401 27.8781 31.1793 28.3171 31.6184 28.3171C32.0575 28.3171 32.4967 27.8781 32.4967 27.4391C32.4967 26.7805 32.0575 26.561 31.6184 26.561Z" fill="#002531"/>
<path d="M43.2556 23.268C41.7186 21.7314 39.9621 20.4144 37.9859 19.5363C36.0098 18.6583 33.814 18.2192 31.6183 18.2192C28.9835 18.2192 26.5682 18.8778 24.3725 19.9753C23.9333 20.1948 23.7137 20.6339 23.9333 21.0729C24.1529 21.5119 24.592 21.7314 25.0312 21.5119C27.0073 20.4144 29.203 19.9753 31.3988 19.9753C35.3511 19.9753 39.0838 21.5119 41.7186 24.3656C41.9382 24.5851 42.1578 24.5851 42.3774 24.5851C42.5969 24.5851 42.8165 24.5851 43.0361 24.3656C43.4752 24.1461 43.4752 23.4875 43.2556 23.268Z" fill="#002531"/>
<path d="M44.1339 42.8048C43.6948 42.5853 43.2556 42.5853 43.036 43.0243C40.4012 46.5365 36.2293 48.5121 31.8379 48.5121C28.9834 48.5121 26.3486 47.6341 24.1529 46.317C23.7137 46.0975 23.2746 46.0975 23.055 46.5365C22.8354 46.9756 22.8354 47.4146 23.2746 47.6341C25.9094 49.3902 28.7639 50.2682 31.8379 50.2682C36.6685 50.2682 41.2795 48.0731 44.3535 44.1219C44.5731 43.6829 44.3535 43.2439 44.1339 42.8048Z" fill="#002531"/>
<path d="M21.7376 44.3417C21.5181 43.9027 20.8594 43.9027 20.6398 44.1222C20.2006 44.3417 20.2006 45.0003 20.6398 45.2198C20.8594 45.4393 21.0789 45.4393 21.2985 45.4393C21.5181 45.4393 21.7376 45.4393 21.7376 45.2198C21.9572 45.2198 21.9572 44.7808 21.7376 44.3417Z" fill="#002531"/>
<path d="M20.6397 12.7319C20.2006 12.7319 19.7614 13.171 19.7614 13.61V22.61H18.444V13.61C18.444 13.171 18.0048 12.7319 17.5657 12.7319C17.1266 12.7319 16.6874 13.171 16.6874 13.61V22.61H15.1504V13.61C15.1504 13.171 14.7113 12.7319 14.2721 12.7319C13.833 12.7319 13.3938 13.171 13.3938 13.61V22.61H12.0764V13.61C12.0764 13.171 11.6373 12.7319 11.1981 12.7319C10.759 12.7319 10.3198 13.171 10.3198 13.61V23.7075C10.3198 25.6832 11.6373 27.6588 13.3938 28.3173V52.9027C13.3938 54.2197 14.4917 55.3173 15.8091 55.3173C17.1266 55.3173 18.2244 54.2197 18.2244 52.9027V28.5368C19.981 27.6588 21.2984 25.9027 21.2984 23.9271V13.61C21.518 13.171 21.0789 12.7319 20.6397 12.7319ZM17.3461 27.2197C16.907 27.2197 16.6874 27.6588 16.6874 28.0978V53.1222C16.6874 53.5612 16.2483 54.0002 15.8091 54.0002C15.37 54.0002 14.9308 53.5612 14.9308 53.1222V27.8783C14.9308 27.4393 14.7113 27.2197 14.2721 27.0002C12.9547 26.5612 12.0764 25.4636 11.8568 24.1466H19.7614C19.5419 25.6832 18.6636 26.7807 17.3461 27.2197Z" fill="#002531"/>
</svg>
