<svg width="64" height="90" viewBox="0 0 64 90" fill="none" xmlns="http://www.w3.org/2000/svg">
<path d="M62.6448 22.9927C62.6448 10.292 52.35 0 39.6458 0H22.999C10.2948 0 0 10.292 0 22.9927V39.635C0 44.4526 1.53327 49.0511 4.16172 52.9927L4.38076 53.2117L30.8843 87.8102H5.25691V90H57.6069V87.8102H31.9795L58.2641 53.6496C58.4831 53.4307 58.4831 53.4307 58.7021 53.2117C61.5496 49.2701 63.0829 44.6715 63.0829 39.854V22.9927H62.6448Z" fill="#FCCD8C"/>
<path d="M40.741 41.1681L38.7697 38.7594L37.0174 40.2922L40.741 44.4528L46.436 38.3214L44.9027 36.7886L40.741 41.1681Z" fill="#002531"/>
<path d="M41.8362 31.0947C41.6171 31.0947 41.3981 31.0947 41.1791 31.0947L40.5219 20.1458H35.265V17.9561C35.265 14.4524 32.4176 11.3867 28.6939 11.3867C25.1893 11.3867 22.1228 14.2334 22.1228 17.9561V20.1458H16.8659L15.7707 40.0728C15.7707 41.6057 16.2088 43.1385 17.3039 44.2334C18.3991 45.3283 19.7134 45.9853 21.4657 45.9853H34.827C36.5793 47.9561 38.9887 49.2699 41.8362 49.2699C46.874 49.2699 51.0358 45.1093 51.0358 40.0728C51.0358 35.2553 46.874 31.0947 41.8362 31.0947ZM24.5322 17.9561C24.5322 15.5473 26.5035 13.5765 28.913 13.5765C31.3224 13.5765 33.2937 15.5473 33.2937 17.9561V20.1458H24.7512V17.9561H24.5322ZM21.6847 43.7955C20.8086 43.7955 19.9324 43.3575 19.2753 42.7006C18.6182 42.0437 18.3991 41.1677 18.3991 40.2918L19.4943 22.3356H22.5608V25.1823H24.7512V22.3356H33.2937V25.1823H35.4841V22.3356H38.5506L38.9887 31.5327C35.265 32.6276 32.6366 36.1312 32.6366 40.2918C32.6366 41.6057 32.8556 42.7006 33.2937 43.7955H21.6847ZM41.8362 47.0801C38.1125 47.0801 34.827 44.0145 34.827 40.0728C34.827 36.3502 37.8935 33.0656 41.8362 33.0656C45.5598 33.0656 48.8454 36.1312 48.8454 40.0728C48.8454 44.0145 45.7789 47.0801 41.8362 47.0801Z" fill="#002531"/>
</svg>
