<svg width="107" height="95" viewBox="0 0 107 95" fill="none" xmlns="http://www.w3.org/2000/svg">
<path d="M105.78 50.1456H79.2101V42.1622H98.5448V13.5967H57.0063V42.1622H76.341V50.1456H49.1476L49.5219 44.4075C49.6466 42.7859 49.0229 41.1643 47.9002 39.9169C46.7776 38.6695 45.156 38.0458 43.5343 38.0458H26.1955C24.5738 38.0458 22.9522 38.6695 21.8295 39.9169C20.7069 41.1643 20.0832 42.6612 20.2079 44.4075L20.5821 50.1456H16.4657H0.873178H0V94.6778H2.86903V53.0146H16.4657H20.7069L21.8295 71.1019C22.079 75.3431 25.5717 78.5863 29.8129 78.5863H33.4304V91.1851H25.8212V94.0541H43.9086V91.1851H36.2994V78.5863H39.9169C44.158 78.5863 47.6508 75.3431 47.9002 71.1019L49.0229 53.0146H103.784V94.6778H106.653V50.1456H105.78ZM60 16.4657H95.6758V39.1684H60V16.4657ZM45.0312 70.9772C44.9065 73.5967 42.6612 75.7173 40.0416 75.7173H29.9377C27.3181 75.7173 25.0728 73.5967 24.948 70.9772L23.3264 44.2828C23.3264 43.4096 23.5759 42.6612 24.1996 42.0375C24.8233 41.4138 25.5717 41.0395 26.4449 41.0395H43.7838C44.657 41.0395 45.4054 41.4138 46.0291 42.0375C46.6528 42.6612 46.9023 43.4096 46.9023 44.2828L45.0312 70.9772Z" fill="#FCCD8C"/>
<path d="M33.9293 8.85656C27.5676 9.35552 22.4532 14.7193 22.4532 21.2058V22.7027H47.2765V21.2058C47.2765 14.9688 42.6612 9.85448 36.7984 8.9813V2.86903H105.406V0H0.997925V2.86903H33.8046V8.85656H33.9293ZM44.2828 19.709H25.447C26.1954 15.2183 30.0624 11.6008 34.8025 11.6008C39.5427 11.6008 43.6591 15.2183 44.2828 19.709Z" fill="#FCCD8C"/>
</svg>
