<svg width="119" height="95" viewBox="0 0 119 95" fill="none" xmlns="http://www.w3.org/2000/svg">
<path d="M108.885 43.6026V35.9295V17.0513C108.885 7.67308 101.212 0 91.8333 0H27.0385C17.6603 0 9.98718 7.67308 9.98718 17.0513V35.9295V43.6026C4.26282 45.3077 0 50.5449 0 56.7564V95H2.80128V82.0897H116.071V95H118.872V56.7564C118.872 50.5449 114.731 45.3077 108.885 43.6026ZM104.256 42.8718H65.6474V35.9295C65.6474 30.2051 70.2756 25.4551 76.1218 25.4551H95.609C101.333 25.4551 106.083 30.0833 106.083 35.9295V42.8718H104.256ZM12.9103 17.0513C12.9103 9.25641 19.2436 2.92308 27.0385 2.92308H91.8333C99.6282 2.80128 105.962 9.25641 105.962 17.0513V27.7692C103.526 24.7244 99.75 22.6538 95.4872 22.6538H76C68.6923 22.6538 62.7244 28.6218 62.7244 35.9295V42.8718H56.0256V35.9295C56.0256 28.6218 50.0577 22.6538 42.75 22.6538H23.2628C19 22.6538 15.2244 24.6026 12.7885 27.7692V17.0513H12.9103ZM12.9103 42.8718V35.9295C12.9103 30.2051 17.5385 25.4551 23.3846 25.4551H42.8718C48.5962 25.4551 53.3462 30.0833 53.3462 35.9295V42.8718H14.6154H12.9103ZM2.80128 79.2885V56.7564C2.80128 50.6667 8.03846 45.7949 14.6154 45.7949H56.0256H62.8462H104.256C110.712 45.7949 116.071 50.7885 116.071 56.7564V79.2885H2.80128Z" fill="#002531"/>
</svg>
