<svg width="74" height="106" viewBox="0 0 74 106" fill="none" xmlns="http://www.w3.org/2000/svg">
<path d="M37.0674 20.8237C28.1712 20.8237 21.0273 28.0785 21.0273 36.8111C21.0273 45.5436 28.306 52.7984 37.0674 52.7984C45.8288 52.7984 53.1075 45.678 53.1075 36.9454C53.1075 28.2128 45.8288 20.8237 37.0674 20.8237ZM37.0674 50.2458C29.6539 50.2458 23.7231 44.2002 23.7231 36.9454C23.7231 29.5563 29.7887 23.645 37.0674 23.645C44.4809 23.645 50.4116 29.6907 50.4116 36.9454C50.4116 44.2002 44.3461 50.2458 37.0674 50.2458Z" fill="#002531"/>
<path d="M74 27.0038C74 12.0913 61.8689 0 46.9071 0H27.0929C12.1311 0 0 12.0913 0 27.0038V46.6185C0 52.3954 1.75228 57.7693 4.98725 62.3371L5.12204 62.4715L36.5282 103.313H6.20036V106H67.9344V103.313H37.6066L68.4736 63.1432C68.6084 63.0089 68.7432 62.7402 68.878 62.6058C72.2477 58.038 74 52.5298 74 46.7528V27.0038ZM71.3042 46.7528C71.3042 51.858 69.6867 56.8289 66.7213 60.9937L66.3169 61.531C65.9126 61.9341 65.643 62.4715 65.2386 62.8745L36.9326 99.5513L7.27869 60.9937L7.00911 60.725C4.17851 56.6945 2.69581 51.858 2.69581 46.7528V27.0038C2.69581 13.5691 13.6138 2.68695 27.0929 2.68695H46.7723C60.2514 2.68695 71.1694 13.5691 71.1694 27.0038V46.7528H71.3042Z" fill="#002531"/>
</svg>
