<svg width="115" height="70" viewBox="0 0 115 70" fill="none" xmlns="http://www.w3.org/2000/svg">
<path d="M115 34.5018H108.673V16.4413C108.673 12.2064 105.2 8.71886 100.982 8.71886H95.5232C93.6624 8.71886 92.0496 9.34163 90.685 10.4626V7.72242C90.685 3.48754 87.2114 0 82.9935 0H77.6591C73.4412 0 69.9676 3.48754 69.9676 7.72242V34.5018H44.7843V7.72242C44.7843 3.48754 41.3107 0 37.0928 0H31.7584C27.5405 0 24.0669 3.48754 24.0669 7.72242V10.4626C22.7023 9.46619 21.0895 8.71886 19.2287 8.71886H13.8943C9.67637 8.71886 6.20281 12.2064 6.20281 16.4413V34.5018H0V37.3666H6.32687V53.5587C6.32687 57.7936 9.80044 61.2811 14.0183 61.2811H19.3528C21.2136 61.2811 22.8263 60.6584 24.1909 59.5374V62.2776C24.1909 66.5125 27.6645 70 31.8824 70H37.2168C41.4347 70 44.9083 66.5125 44.9083 62.2776V37.242H70.0917V62.2776C70.0917 66.5125 73.5653 70 77.7832 70H83.1176C87.3355 70 90.8091 66.5125 90.8091 62.2776V59.5374C92.1737 60.5338 93.7864 61.2811 95.6473 61.2811H100.982C105.2 61.2811 108.673 57.7936 108.673 53.5587V37.3666H115V34.5018ZM19.3528 58.4164H14.0183C11.4132 58.4164 9.18014 56.2989 9.18014 53.5587V16.4413C9.18014 13.8256 11.2891 11.5836 14.0183 11.5836H19.3528C21.9579 11.5836 24.1909 13.7011 24.1909 16.4413V53.5587C24.1909 56.2989 21.9579 58.4164 19.3528 58.4164ZM41.931 62.4021C41.931 65.0178 39.822 67.2598 37.0928 67.2598H31.7584C29.1532 67.2598 26.9202 65.1423 26.9202 62.4021V53.6833V16.4413V7.72242C26.9202 5.10676 29.0291 2.86477 31.7584 2.86477H37.0928C39.6979 2.86477 41.931 4.9822 41.931 7.72242V62.4021ZM87.8317 62.4021C87.8317 65.0178 85.7228 67.2598 82.9935 67.2598H77.6591C75.0539 67.2598 72.8209 65.1423 72.8209 62.4021V7.72242C72.8209 5.10676 74.9299 2.86477 77.6591 2.86477H82.9935C85.5987 2.86477 87.8317 4.9822 87.8317 7.72242V16.4413V53.5587V62.4021ZM105.696 53.6833C105.696 56.2989 103.587 58.5409 100.858 58.5409H95.5232C92.918 58.5409 90.685 56.4235 90.685 53.6833V16.4413C90.685 13.8256 92.794 11.5836 95.5232 11.5836H100.858C103.463 11.5836 105.696 13.7011 105.696 16.4413V53.6833Z" fill="#FCCD8C"/>
</svg>
