<svg width="116" height="92" viewBox="0 0 116 92" fill="none" xmlns="http://www.w3.org/2000/svg">
<path d="M17.885 2.7443L16.6376 0.124756C12.0222 2.24534 7.78107 5.11437 3.91412 8.48235L5.90997 10.7277C9.40269 7.35969 13.5191 4.74015 17.885 2.7443Z" fill="#FCCD8C"/>
<path d="M5.53577 20.2079L7.78109 22.079C10.5254 18.711 13.7686 15.9668 17.5108 13.5967C21.1283 11.3514 24.9952 9.72974 29.1117 8.73182L28.3632 5.86279C23.9973 6.98546 19.7562 8.73182 15.8892 11.1019C12.0223 13.5967 8.52953 16.7152 5.53577 20.2079Z" fill="#FCCD8C"/>
<path d="M111.814 8.3576C107.948 4.98961 103.706 2.24532 99.091 0L97.8436 2.61954C102.209 4.61539 106.201 7.23493 109.819 10.4782L111.814 8.3576Z" fill="#FCCD8C"/>
<path d="M107.823 22.079L110.068 20.2079C107.074 16.5905 103.582 13.5967 99.7147 11.1019C95.8477 8.73182 91.7313 6.98546 87.2406 5.86279L86.4922 8.73182C90.6086 9.72974 94.4756 11.3514 98.093 13.5967C101.835 15.9668 105.078 18.8358 107.823 22.079Z" fill="#FCCD8C"/>
<path d="M115.432 86.8192L113.686 81.0811C111.565 74.0957 105.078 69.2308 97.7188 69.2308H92.9787V61.4969H106.825C108.821 61.4969 110.442 59.8753 110.442 57.8794V47.1518C110.442 29.0645 95.723 14.3451 77.6356 14.3451H59.2988V4.7401H70.7749V1.74634H44.8289V4.61536H56.305V14.0956H37.9682C19.8809 14.0956 5.16154 28.815 5.16154 46.9023V57.63C5.16154 59.6258 6.78316 61.2474 8.77901 61.2474H22.6252V68.9813H17.885C10.5254 68.9813 4.03888 73.8462 1.91829 80.8317L0.171929 86.5697C-0.202292 87.8171 0.0471884 89.0645 0.79563 90.0624C1.54407 91.0604 2.79147 91.6841 4.03888 91.6841H111.565C112.812 91.6841 114.06 91.0604 114.808 90.0624C115.557 89.314 115.806 88.0666 115.432 86.8192ZM8.65427 58.5031C8.28004 58.5031 8.03056 58.2537 8.03056 57.8794V47.1518C8.03056 46.7776 8.03056 46.5281 8.03056 46.1539H18.2593V43.2848H8.28004C10.1511 28.6902 22.7499 17.3389 37.9682 17.3389H77.7604C92.9787 17.3389 105.453 28.6902 107.449 43.2848H56.1803V46.1539H107.698C107.698 46.5281 107.698 46.7776 107.698 47.1518V57.8794C107.698 58.2537 107.449 58.5031 107.074 58.5031H93.1034H22.6252H8.65427ZM25.4942 61.4969H90.1096V69.2308H25.4942V61.4969ZM112.438 88.5655C112.189 88.815 111.939 89.0645 111.565 89.0645H4.03888C3.66466 89.0645 3.41517 88.9398 3.16569 88.5655C3.04095 88.4408 2.91621 88.0666 3.04095 87.5676L4.78732 81.8296C6.53368 76.0915 11.8975 72.0998 18.0098 72.0998H22.7499H93.2281H97.9683C103.956 72.0998 109.444 76.0915 111.191 81.8296L112.937 87.5676C112.812 88.0666 112.563 88.4408 112.438 88.5655Z" fill="#FCCD8C"/>
</svg>
