<svg width="63" height="90" viewBox="0 0 63 90" fill="none" xmlns="http://www.w3.org/2000/svg">
<path d="M62.9032 23.0127C62.9032 10.2532 52.4193 0 39.6564 0H23.0189C10.256 0 0 10.2532 0 23.0127V39.6456C0 44.4304 1.36746 48.9873 4.3303 52.8608L4.5582 53.0886L31.2237 87.7215H5.24194V90H57.6613V87.7215H31.9074L58.1171 53.5443C58.1171 53.3165 58.345 53.3165 58.345 53.0886C61.0799 49.2152 62.6753 44.4304 62.6753 39.6456V23.0127H62.9032Z" fill="#FCCD8C"/>
<path d="M55.6101 30.3038L53.331 26.4304V21.4177C53.331 20.5063 52.6472 19.8228 51.7356 19.8228H49.4565L44.8983 11.8481C44.6704 11.3924 44.4425 11.1646 43.9866 11.1646C43.5308 11.1646 43.075 11.1646 42.8471 11.3924L27.805 20.0506H11.3955C10.4838 20.0506 9.80012 20.7342 9.80012 21.6456V30.3038L7.74892 31.443C7.2931 31.6709 7.06519 31.8987 7.06519 32.3544C7.06519 32.8101 7.06518 33.2658 7.29309 33.4937L10.028 38.2785V42.8354C10.028 43.7468 10.7117 44.4304 11.6234 44.4304H13.6746L18.0049 52.1772C18.2328 52.6329 18.4607 52.8608 18.9165 52.8608C19.1444 52.8608 19.1444 52.8608 19.3723 52.8608C19.6003 52.8608 19.8282 52.8608 20.284 52.6329L34.6423 44.4304H52.1914C53.1031 44.4304 53.7868 43.7468 53.7868 42.8354V33.2658L55.3822 32.3544C55.838 32.1266 56.0659 30.9873 55.6101 30.3038ZM43.5308 12.3038L47.8611 19.8228H46.7216L45.1262 17.0886C45.1262 16.8608 44.8983 16.8608 44.6704 16.6329C44.4425 16.4051 44.2146 16.6329 43.9866 16.6329C43.5308 16.8608 42.8471 17.0886 42.3913 16.8608C41.7075 16.6329 41.2517 16.4051 41.0238 15.9494C40.7959 15.4937 40.3401 15.4937 39.8843 15.7215L32.5911 19.8228H30.5399L43.5308 12.3038ZM44.8983 19.8228H35.7819L40.1122 17.3164C40.568 17.7721 41.2517 18.2278 41.9355 18.4557C42.6192 18.6835 43.3029 18.6835 43.9866 18.4557L44.8983 19.8228ZM8.43264 32.8101C8.43264 32.5823 8.43264 32.5823 8.43264 32.8101L9.80012 31.8987V35.0886L8.43264 32.8101ZM19.3723 51.4937C19.1444 51.4937 19.1444 51.4937 19.3723 51.4937L15.2699 44.6582H16.4095L17.777 46.9367C17.777 47.1646 18.0049 47.1646 18.2328 47.3924C18.4607 47.3924 18.6886 47.3924 18.9165 47.3924C19.3723 47.1646 20.0561 46.9367 20.5119 47.1646C20.9677 47.3924 21.6514 47.6202 21.8793 48.0759C21.8793 48.3038 22.1073 48.3038 22.3352 48.5316H22.5631C22.791 48.5316 22.791 48.5316 23.0189 48.5316L29.4004 44.8861H31.4516L19.3723 51.4937ZM18.2328 44.4304H26.2096L22.791 46.481C22.3352 46.0253 21.6514 45.5696 20.9677 45.3418C20.284 45.1139 19.6003 45.1139 18.9165 45.3418L18.2328 44.4304ZM51.9635 42.8354H11.3955V21.4177H51.9635V42.8354ZM54.4705 31.2152L53.5589 31.6709V29.6202L54.4705 31.2152C54.4705 30.9873 54.4705 30.9873 54.4705 31.2152ZM50.1402 25.2911C49.0007 25.2911 47.8611 24.3797 47.8611 23.0127C47.8611 22.557 47.4053 22.3291 47.1774 22.3291H16.1816C15.7258 22.3291 15.4979 22.7848 15.4979 23.0127C15.4979 24.1519 14.5862 25.2911 13.2188 25.2911C12.763 25.2911 12.535 25.7468 12.535 25.9747V38.2785C12.535 38.7342 12.9909 38.962 13.2188 38.962C14.3583 38.962 15.4979 39.8734 15.4979 41.2405C15.4979 41.6962 15.9537 41.924 16.1816 41.924H47.4053C47.8611 41.924 48.089 41.4683 48.089 41.2405C48.089 40.1013 49.0007 38.962 50.3681 38.962C50.8239 38.962 51.0519 38.5063 51.0519 38.2785V25.9747C51.0519 25.519 50.596 25.2911 50.1402 25.2911ZM49.4565 37.5949C48.089 37.8228 46.9495 38.962 46.4937 40.557H16.8653C16.6374 39.1899 15.4979 38.0506 13.9025 37.5949V26.6582C15.27 26.4304 16.4095 25.2911 16.8653 23.6962H46.7216C46.9495 25.0633 48.089 26.2025 49.6844 26.6582V37.5949H49.4565ZM43.7587 29.8481C42.3913 29.8481 41.4796 30.9873 41.4796 32.1266C41.4796 33.2658 42.6192 34.4051 43.7587 34.4051C45.1262 34.4051 46.0378 33.2658 46.0378 32.1266C46.0378 30.9873 45.1262 29.8481 43.7587 29.8481ZM43.7587 32.8101C43.3029 32.8101 43.075 32.3544 43.075 32.1266C43.075 31.6709 43.5308 31.443 43.7587 31.443C44.2145 31.443 44.4425 31.8987 44.4425 32.1266C44.6704 32.5823 44.2145 32.8101 43.7587 32.8101ZM19.6002 29.8481C18.2328 29.8481 17.3211 30.9873 17.3211 32.1266C17.3211 33.2658 18.4607 34.4051 19.6002 34.4051C20.9677 34.4051 21.8793 33.2658 21.8793 32.1266C21.8793 30.9873 20.7398 29.8481 19.6002 29.8481ZM19.6002 32.8101C19.1444 32.8101 18.9165 32.3544 18.9165 32.1266C18.9165 31.6709 19.3723 31.443 19.6002 31.443C20.0561 31.443 20.284 31.8987 20.284 32.1266C20.284 32.5823 20.0561 32.8101 19.6002 32.8101ZM34.6423 33.4937C34.6423 34.1772 34.6423 34.6329 34.1865 35.0886C33.7307 35.5443 33.2749 35.7721 32.5911 36V36.2278C32.5911 36.6835 32.1353 36.9114 31.9074 36.9114C31.4516 36.9114 31.2237 36.4557 31.2237 36.2278V36C30.0841 35.7721 29.4004 35.0886 29.1725 33.9494C29.1725 33.4937 29.4004 33.038 29.6283 33.038C29.8562 33.038 30.5399 33.2658 30.5399 33.4937C30.7679 34.1772 31.4516 34.4051 31.9074 34.4051C32.3632 34.4051 32.819 34.1772 33.047 33.9494C33.047 33.7215 33.2749 33.7215 33.2749 33.4937C33.2749 33.2658 33.2749 32.8101 31.6795 32.5823C29.6283 32.1266 29.1725 30.9873 29.1725 30.3038C29.1725 29.1646 29.8562 28.2532 30.9958 27.7975V27.5696C30.9958 27.1139 31.4516 26.8861 31.6795 26.8861C32.1353 26.8861 32.3632 27.3418 32.3632 27.5696V27.7975C33.0469 28.0253 33.9586 28.481 34.1865 29.3924C34.4144 29.8481 34.1865 30.3038 33.7307 30.3038C33.2749 30.5316 32.819 30.3038 32.819 29.8481C32.5911 29.6202 31.9074 29.6202 31.2237 29.6202C30.9958 29.6202 30.312 29.8481 30.312 30.5316C30.312 30.7595 30.312 31.2152 31.6795 31.443C33.5028 31.6709 34.4144 32.3544 34.6423 33.4937ZM31.6795 25.0633C27.805 25.0633 24.6143 28.2532 24.6143 32.1266C24.6143 36 27.805 39.1899 31.6795 39.1899C35.554 39.1899 38.7447 36 38.7447 32.1266C38.7447 28.2532 35.554 25.0633 31.6795 25.0633ZM31.6795 37.8228C28.4888 37.8228 25.9817 35.3165 25.9817 32.1266C25.9817 28.9367 28.4888 26.4304 31.6795 26.4304C34.8702 26.4304 37.3773 28.9367 37.3773 32.1266C37.3773 35.3165 34.6423 37.8228 31.6795 37.8228Z" fill="#002531"/>
</svg>
