<svg width="196" height="192" viewBox="0 0 196 192" fill="none" xmlns="http://www.w3.org/2000/svg">
<g clip-path="url(#clip0_285_21)">
<path d="M25.4872 0L93.6923 41.3483L25.4872 81.9775V0Z" fill="#C0C0C0"/>
<path d="M31.9487 96L170.154 10.0674V94.9213L99.0769 136.27L31.9487 96Z" fill="#FE0002"/>
<path d="M31.9487 96L99.4359 53.9326V136.27L31.9487 96Z" fill="#C10001"/>
<path d="M0 177.977V161.079H8.61539V177.977C8.61539 182.292 10.7692 184.449 14.359 184.449C17.5897 184.449 20.1026 182.292 20.1026 178.337V161.438H28.718V178.337C28.718 188.045 22.9744 192.36 14.7179 192.36C5.38462 192 0 187.326 0 177.977Z" fill="black"/>
<path d="M32.6667 167.91H40.9231V172.584C42.359 169.348 44.5128 167.191 48.4615 167.551V176.18H47.7436C43.4359 176.18 40.9231 178.697 40.9231 184.09V191.281H32.6667V167.91Z" fill="black"/>
<path d="M59.2308 188.404V191.281H50.9744V159.64H59.2308V170.786C60.6667 168.989 62.8205 167.191 66.4103 167.191C72.1539 167.191 76.8205 171.865 76.8205 179.416C76.8205 186.966 72.1539 191.64 66.4103 191.64C62.8205 191.64 61.0256 190.202 59.2308 188.404ZM68.9231 179.416C68.9231 176.18 66.7692 174.022 64.2564 174.022C61.7436 174.022 59.5898 176.18 59.5898 179.416C59.5898 182.652 61.7436 184.809 64.2564 184.809C66.7692 184.809 68.9231 182.652 68.9231 179.416Z" fill="black"/>
<path d="M79.3333 184.449C79.3333 179.416 82.9231 176.899 88.6667 176.899C90.8205 176.899 92.9744 177.258 94.4103 177.978V177.618C94.4103 175.101 92.9744 173.663 89.7436 173.663C87.2308 173.663 85.4359 174.022 83.2821 175.101L81.4872 169.348C84 168.27 86.8718 167.551 90.8205 167.551C95.1282 167.551 98 168.629 99.7949 170.427C101.59 172.225 102.308 174.742 102.308 177.978V191.281H94.0513V188.764C92.6154 190.562 90.1026 191.64 87.2308 191.64C82.5641 191.64 79.3333 189.124 79.3333 184.449ZM94.0513 182.652V181.573C93.3333 181.213 91.8974 180.854 90.8205 180.854C88.3077 180.854 87.2308 181.933 87.2308 183.73C87.2308 185.169 88.3077 186.247 90.1026 186.247C92.2564 186.607 94.0513 185.169 94.0513 182.652Z" fill="black"/>
<path d="M114.513 159.64H106.256V191.281H114.513V159.64Z" fill="black"/>
<path d="M119.18 159.64H127.795V165.753H119.18V159.64ZM119.538 167.91H127.795V191.281H119.538V167.91Z" fill="black"/>
<path d="M132.103 167.91H140.359V171.146C141.795 169.348 143.949 167.551 147.179 167.551C150.41 167.551 152.564 168.989 154 171.506C156.154 168.989 158.308 167.551 161.897 167.551C166.923 167.551 169.795 170.786 169.795 176.18V191.64H161.538V179.056C161.538 176.539 160.462 175.101 158.308 175.101C156.513 175.101 155.077 176.539 155.077 179.056V191.64H146.821V179.056C146.821 176.539 145.744 175.101 143.59 175.101C141.795 175.101 140.359 176.539 140.359 179.056V191.64H132.103V167.91Z" fill="black"/>
<path d="M173.026 184.449C173.026 179.416 176.615 176.899 182.359 176.899C184.513 176.899 186.667 177.258 188.103 177.978V177.618C188.103 175.101 186.667 173.663 183.436 173.663C180.923 173.663 179.128 174.022 176.974 175.101L175.179 169.348C177.692 168.27 180.564 167.551 184.513 167.551C188.821 167.551 191.692 168.629 193.487 170.427C195.282 172.225 196 174.742 196 177.978V191.281H187.744V188.764C186.308 190.562 183.795 191.64 180.923 191.64C176.256 191.64 173.026 189.124 173.026 184.449ZM187.744 182.652V181.573C187.026 181.213 185.59 180.854 184.513 180.854C182 180.854 180.923 181.933 180.923 183.73C180.923 185.169 182 186.247 183.795 186.247C186.308 186.607 187.744 185.169 187.744 182.652Z" fill="black"/>
</g>
<defs>
<clipPath id="clip0_285_21">
<rect width="196" height="192" fill="white"/>
</clipPath>
</defs>
</svg>
