<svg width="211" height="49" viewBox="0 0 211 49" fill="none" xmlns="http://www.w3.org/2000/svg">
<path fill-rule="evenodd" clip-rule="evenodd" d="M12.184 19.3224L21.3048 0H24.3222C24.3222 0.150788 24.2765 0.323117 24.1851 0.473905L14.0813 21.455H10.1952L0.114296 0.473905C0.0457185 0.301576 0 0.150788 0 0H3.04028L12.184 19.3224ZM123.851 34.7459C124.011 34.6166 124.24 34.5305 124.491 34.5305C124.766 34.5305 124.972 34.5951 125.132 34.7459C125.292 34.8967 125.383 35.069 125.383 35.2844C125.383 35.4998 125.292 35.6937 125.132 35.8229C124.972 35.9737 124.743 36.0383 124.491 36.0383C124.217 36.0383 124.011 35.9737 123.851 35.8229C123.691 35.6937 123.6 35.4998 123.6 35.2844C123.623 35.069 123.691 34.8967 123.851 34.7459ZM125.154 44.8918H123.851V37.4816H125.154V44.8918ZM119.508 34.8967H120.811V44.8918H119.508V34.8967ZM105.793 39.1833C105.495 38.6017 105.061 38.1494 104.513 37.8478C103.987 37.5247 103.347 37.3739 102.638 37.417C101.884 37.417 101.221 37.5893 100.695 37.9555C100.169 38.3217 99.8035 38.7956 99.5978 39.3988V34.9182H98.2948V44.9133H99.5978V43.0177C99.8035 43.6208 100.169 44.0947 100.695 44.4609C101.221 44.8271 101.884 44.9995 102.638 44.9995C103.347 44.9995 103.964 44.8487 104.513 44.5471C105.061 44.2455 105.495 43.8147 105.793 43.2331C106.09 42.6515 106.25 41.9837 106.25 41.2082C106.25 40.4327 106.09 39.765 105.793 39.1833ZM99.9407 39.7434C100.169 39.3341 100.489 39.011 100.901 38.7956C101.312 38.5802 101.769 38.4725 102.272 38.4294C103.095 38.4294 103.735 38.6879 104.215 39.1618C104.695 39.6572 104.947 40.325 104.947 41.1651C104.947 42.0268 104.695 42.6945 104.215 43.1685C103.735 43.6639 103.095 43.9009 102.272 43.9009C101.769 43.9009 101.312 43.7716 100.901 43.5562C100.489 43.3408 100.169 43.0177 99.9407 42.6084C99.7121 42.1991 99.5978 41.7252 99.5978 41.1867C99.5978 40.6266 99.7121 40.1527 99.9407 39.7434ZM64.806 40.7989C65.1946 41.2298 65.3775 41.7467 65.3775 42.3284C65.3775 43.1038 65.1032 43.7285 64.5317 44.2024C63.9831 44.6763 63.1601 44.9133 62.1086 44.9133H58.3597V35.3706H62.0629C63.0687 35.3706 63.8459 35.586 64.3717 35.9953C64.8974 36.4261 65.1717 37.0077 65.1717 37.7401C65.1717 38.3432 64.9889 38.8387 64.646 39.2264C64.3031 39.6142 63.8459 39.8511 63.2973 39.9588C63.9145 40.0881 64.4174 40.3681 64.806 40.7989ZM59.6627 39.5495H61.8343C62.4743 39.5495 62.9544 39.4203 63.2973 39.1403C63.6402 38.8602 63.8002 38.4725 63.8002 37.9555C63.8002 37.4601 63.6402 37.0939 63.2973 36.8138C62.9544 36.5338 62.4515 36.4045 61.7657 36.4045H59.6398V39.5495H59.6627ZM63.4573 43.427C63.8459 43.1254 64.0288 42.7161 64.0288 42.1776C64.0288 41.639 63.8459 41.2298 63.4573 40.9282C63.0687 40.6266 62.5201 40.4758 61.8343 40.4758H59.6627V43.8793H61.88C62.5429 43.8578 63.0915 43.7285 63.4573 43.427ZM68.4863 37.4816L71.0465 43.3192L73.401 37.4816H74.864L70.1779 48.4029H68.7149L70.3379 44.7625L67.0233 37.4816H68.4863ZM82.6819 41.079V35.3706H81.3561V41.079C81.3561 42.3714 81.699 43.3623 82.3847 44.0086C83.0705 44.6548 83.9849 44.9779 85.1278 44.9779C86.2708 44.9779 87.1852 44.6548 87.871 44.0086C88.5567 43.3623 88.8996 42.3714 88.8996 41.079V35.3706H87.5966V41.079C87.5966 42.0052 87.3909 42.6946 86.9566 43.1469C86.5451 43.5993 85.9279 43.8147 85.1736 43.8147C84.3963 43.8147 83.7791 43.5993 83.3448 43.1469C82.9105 42.7161 82.6819 42.0268 82.6819 41.079ZM94.3173 37.7832C94.8202 37.5031 95.4145 37.3524 96.1003 37.3524V38.6879H95.6888C94.9573 38.6879 94.3401 38.8602 93.8829 39.2264C93.4258 39.5926 93.1743 40.1743 93.1743 40.9928V44.8918H91.8713V37.4816H93.1743V38.9895C93.4258 38.451 93.8144 38.0632 94.3173 37.7832ZM114.091 37.9124C114.616 38.2786 114.982 38.7525 115.211 39.3557V37.46H116.514V44.8702H115.211V42.9746C115.005 43.5777 114.639 44.0516 114.091 44.4178C113.565 44.784 112.902 44.9564 112.148 44.9564C111.439 44.9564 110.822 44.8056 110.273 44.504C109.724 44.2024 109.29 43.7501 108.993 43.19C108.673 42.6084 108.536 41.9406 108.536 41.1651C108.536 40.3896 108.696 39.7219 108.993 39.1403C109.313 38.5586 109.724 38.1278 110.273 37.8262C110.822 37.5247 111.439 37.3739 112.148 37.3739C112.902 37.3739 113.542 37.5678 114.091 37.9124ZM110.593 39.2049C110.113 39.6788 109.862 40.3466 109.862 41.2082C109.862 42.0483 110.113 42.7161 110.593 43.2115C111.073 43.6854 111.713 43.9439 112.513 43.9439C113.039 43.9439 113.496 43.8362 113.908 43.5993C114.319 43.3839 114.639 43.0607 114.868 42.6515C115.096 42.2422 115.211 41.7683 115.211 41.2297C115.211 40.6912 115.096 40.2173 114.868 39.7865C114.639 39.3772 114.319 39.0541 113.908 38.8387C113.496 38.6233 113.039 38.5156 112.513 38.5156C111.713 38.4725 111.073 38.7094 110.593 39.2049ZM140.927 40.5835C140.927 39.5495 140.63 38.7525 140.082 38.1925C139.51 37.6324 138.779 37.3524 137.864 37.3954C137.201 37.3954 136.63 37.5678 136.104 37.8909C135.601 38.214 135.235 38.6879 135.007 39.2911C134.801 38.6664 134.435 38.1925 133.955 37.8693C133.475 37.5462 132.881 37.3954 132.218 37.3954C131.578 37.3954 131.029 37.5678 130.526 37.8693C130.023 38.1709 129.681 38.6233 129.498 39.2049V37.5247H128.195V44.9348H129.498V40.9928C129.498 40.1527 129.703 39.528 130.115 39.0972C130.526 38.6664 131.075 38.451 131.784 38.451C132.447 38.451 132.949 38.6448 133.338 39.0326C133.727 39.4203 133.91 39.9804 133.91 40.7128V44.9133H135.212V40.9713C135.212 40.1312 135.418 39.5065 135.83 39.0756C136.264 38.6448 136.813 38.4294 137.498 38.4294C138.161 38.4294 138.664 38.6233 139.053 39.011C139.441 39.3988 139.624 39.9588 139.624 40.6912V44.8918H140.927V40.5835ZM149.042 37.9124C149.568 38.2786 149.934 38.7525 150.162 39.3557V37.46H151.465V44.8702H150.162V42.9746C149.957 43.5777 149.591 44.0516 149.042 44.4178C148.517 44.784 147.854 44.9564 147.099 44.9564C146.391 44.9564 145.773 44.8056 145.225 44.504C144.676 44.2024 144.242 43.7501 143.945 43.19C143.625 42.6084 143.488 41.9406 143.488 41.1651C143.488 40.3896 143.648 39.7219 143.945 39.1403C144.242 38.5586 144.676 38.1278 145.225 37.8262C145.773 37.5247 146.391 37.3739 147.099 37.3739C147.854 37.3739 148.517 37.5678 149.042 37.9124ZM145.545 39.2049C145.065 39.6788 144.813 40.3466 144.813 41.2082C144.813 42.0483 145.065 42.7161 145.545 43.2115C146.025 43.6854 146.665 43.9439 147.465 43.9439C147.991 43.9439 148.448 43.8362 148.859 43.5993C149.271 43.3839 149.591 43.0607 149.82 42.6515C150.048 42.2422 150.162 41.7683 150.162 41.2297C150.162 40.6912 150.048 40.2173 149.82 39.7865C149.591 39.3772 149.271 39.0541 148.859 38.8387C148.448 38.6233 147.991 38.5156 147.465 38.5156C146.665 38.4725 146.025 38.7094 145.545 39.2049ZM57.3538 0H54.3821V0.193871V21.455H57.3767V0.193871C57.3538 0.129247 57.3538 0.0646234 57.3538 0ZM207.653 0H210.694C210.717 0.0646234 210.717 0.129247 210.717 0.193871V21.455H208.019V4.35131L198.715 20.4856L189.16 4.52364V21.455H186.44V0.193871V0H189.526L198.647 15.5742L207.653 0ZM105.998 15.5312C105.998 16.6944 105.61 17.7284 104.81 18.6331C104.398 19.0855 103.918 19.4947 103.347 19.8609C102.798 20.2056 102.181 20.4856 101.495 20.7226C100.055 21.218 98.4319 21.4765 96.5803 21.4765C94.7516 21.4765 93.0143 21.2611 91.3456 20.8087C90.3855 20.5502 89.5168 20.2487 88.7853 19.8609C88.4882 19.7101 88.191 19.5594 87.9395 19.387L89.2425 17.4914C91.3913 18.7623 93.8372 19.387 96.5575 19.387C98.6377 19.387 100.238 19.0639 101.358 18.3961C102.478 17.7499 103.027 16.8021 103.027 15.5958C103.027 14.9065 102.752 14.3464 102.227 13.9156C101.701 13.5063 100.992 13.1401 100.124 12.9031C99.2549 12.6446 98.0662 12.3862 96.6032 12.1061C94.6144 11.7184 92.9686 11.3306 91.7113 10.9214C90.4312 10.5121 89.4025 9.90892 88.6253 9.13344C87.8252 8.35796 87.4366 7.34553 87.4366 6.09614C87.4366 4.91138 87.8252 3.85586 88.6253 2.92959C89.2197 2.24028 89.9969 1.65867 90.957 1.2063C91.2541 1.05551 91.597 0.926268 91.9399 0.797021C93.3572 0.301574 94.9802 0.0430807 96.8089 0.0430807C98.5005 0.0430807 100.101 0.258492 101.564 0.689315C102.089 0.840103 102.569 1.01243 103.027 1.22784C103.872 1.59404 104.604 2.02487 105.244 2.52031L105.267 2.54185L103.758 4.2436C102.592 3.46812 101.495 2.92959 100.489 2.60648C99.4606 2.28336 98.2491 2.13257 96.8089 2.13257C94.7973 2.13257 93.22 2.47723 92.1228 3.14501C91.0027 3.83432 90.4541 4.78213 90.4541 6.00998C90.4541 7.06549 90.957 7.84097 91.917 8.3795C92.9 8.89649 94.4087 9.37039 96.4432 9.75814C98.6605 10.189 100.375 10.5982 101.655 10.9644C102.912 11.3306 103.964 11.8907 104.81 12.6231C105.587 13.3124 105.998 14.3033 105.998 15.5312ZM156.426 8.70262C156.426 11.6107 155.557 13.8294 153.82 15.3588C153.546 15.5958 153.248 15.8112 152.951 16.0266C152.631 16.242 152.266 16.4143 151.9 16.5867C152.288 16.759 152.654 16.9529 152.997 17.1683C153.294 17.3622 153.591 17.5776 153.866 17.8145C154.94 18.7408 155.672 19.9471 156.083 21.4334H153.043C152.746 20.6149 152.288 19.9256 151.671 19.387C150.46 18.2884 148.654 17.7499 146.276 17.7499C143.899 17.7499 142.093 18.2884 140.882 19.387C140.264 19.9256 139.807 20.6149 139.51 21.4334H136.47C136.881 19.9686 137.613 18.7839 138.687 17.8361C138.961 17.5991 139.259 17.3622 139.579 17.1683C139.899 16.9529 140.264 16.7805 140.63 16.6082C140.242 16.4359 139.876 16.242 139.533 16.0266C139.236 15.8327 138.939 15.6173 138.664 15.3804C136.95 13.851 136.081 11.6322 136.081 8.70262V0.366195V0.193866H139.007V0.366195V8.91803C139.007 11.0721 139.601 12.6877 140.836 13.7863C142.047 14.8849 143.853 15.4235 146.231 15.4235C148.608 15.4235 150.414 14.8849 151.625 13.7863C152.837 12.7093 153.454 11.0721 153.454 8.91803V0.366195V0.193866H156.426V0.366195V8.70262Z" fill="#FBCC8B"/>
</svg>
