<svg width="324" height="94" viewBox="0 0 324 94" fill="none" xmlns="http://www.w3.org/2000/svg">
<path d="M65.3465 69.1794C71.6584 63.2242 75 54.6637 75 43.1256V10.7444C75 10.3722 75 10.3722 75 10H64.2327C64.2327 10.3722 64.2327 10.3722 64.2327 10.7444V44.2422C64.2327 52.8027 62.0049 59.13 57.5495 63.2242C53.0941 67.3184 46.4109 69.5516 37.8713 69.5516C28.9604 69.5516 22.6485 67.3184 18.1931 63.2242C13.7376 59.13 11.5099 52.8027 11.5099 44.2422V10.7444C11.5099 10.3722 11.5099 10.3722 11.5099 10H0C0 10.3722 0 10.3722 0 10.7444V43.1256C0 54.6637 2.9703 63.2242 9.65346 69.1794C10.7673 69.9238 11.8812 71.0404 12.995 71.7848C14.1089 72.5292 15.5941 73.2735 17.0792 74.0179C15.5941 74.7623 14.4802 75.5067 13.3663 76.2511C12.2525 76.9955 11.1386 77.7399 10.0248 78.8565C5.94059 82.5785 3.34158 87.0448 1.85644 93H12.995C14.1089 89.6502 15.5941 87.0448 18.1931 85.1839C22.6485 81.0897 29.3317 78.8565 37.8713 78.8565C46.7822 78.8565 53.0941 81.0897 57.5495 85.1839C59.7772 87.417 61.6337 90.0224 62.7475 93H73.8861C72.401 87.0448 69.802 82.5785 65.7178 78.8565C64.604 78.1121 63.4901 76.9955 62.3762 76.2511C61.2624 75.5067 59.7772 74.7623 58.2921 74.0179C59.7772 73.2735 60.8911 72.5292 62.005 71.7848C63.1188 71.0404 64.2327 70.296 65.3465 69.1794Z" fill="#FCCD8C"/>
<path d="M105.43 93V47.44C104.76 47.44 103.375 47.574 101.276 47.842L88.144 49.517V46.1H127.272V49.517L114.14 47.842C112.041 47.574 110.656 47.44 109.986 47.44V93H105.43ZM138.155 93V46.1H142.711V93H138.155ZM160.14 93V46.1H168.515C173.919 46.1 178.118 47.2613 181.111 49.584C184.103 51.862 185.6 55.0557 185.6 59.165C185.6 63.2743 184.103 66.4903 181.111 68.813C178.118 71.091 173.919 72.23 168.515 72.23H164.696V93H160.14ZM168.515 47.708H164.696V70.622H168.515C176.689 70.622 180.776 66.803 180.776 59.165C180.776 51.527 176.689 47.708 168.515 47.708ZM195.001 69.55C195.001 66.1107 195.604 62.917 196.81 59.969C198.06 56.9763 199.78 54.3857 201.969 52.197C204.202 49.9637 206.793 48.244 209.741 47.038C212.733 45.7873 215.949 45.162 219.389 45.162C222.828 45.162 226.022 45.7873 228.97 47.038C231.962 48.244 234.553 49.9637 236.742 52.197C238.975 54.3857 240.695 56.9763 241.901 59.969C243.151 62.917 243.777 66.1107 243.777 69.55C243.777 72.9893 243.151 76.2053 241.901 79.198C240.695 82.146 238.975 84.7367 236.742 86.97C234.553 89.1587 231.962 90.8783 228.97 92.129C226.022 93.335 222.828 93.938 219.389 93.938C215.949 93.938 212.733 93.335 209.741 92.129C206.793 90.8783 204.202 89.1587 201.969 86.97C199.78 84.7367 198.06 82.146 196.81 79.198C195.604 76.2053 195.001 72.9893 195.001 69.55ZM200.093 69.55C200.093 74.106 200.897 78.1037 202.505 81.543C204.113 84.9377 206.368 87.5953 209.272 89.516C212.175 91.392 215.547 92.33 219.389 92.33C223.23 92.33 226.602 91.392 229.506 89.516C232.409 87.5953 234.665 84.9153 236.273 81.476C237.881 78.0367 238.685 74.0613 238.685 69.55C238.685 65.0387 237.881 61.0857 236.273 57.691C234.665 54.2517 232.409 51.5717 229.506 49.651C226.602 47.7303 223.23 46.77 219.389 46.77C215.547 46.77 212.175 47.7303 209.272 49.651C206.413 51.527 204.157 54.1847 202.505 57.624C200.897 61.0187 200.093 64.994 200.093 69.55ZM279.972 93V49.986L270.257 54.542L269.721 53.47L283.188 45.162H284.528V93H279.972Z" fill="#FCCD8C"/>
<path d="M96 13.25C98.05 13.25 99.85 13.65 101.4 14.45C102.95 15.2333 104.158 16.3333 105.025 17.75C105.892 19.15 106.325 20.775 106.325 22.625C106.325 24.475 105.892 26.1083 105.025 27.525C104.158 28.925 102.95 30.025 101.4 30.825C99.85 31.6083 98.05 32 96 32H88.425V13.25H96ZM89.825 31.9L88.675 30.775H96C97.75 30.775 99.2917 30.4333 100.625 29.75C101.958 29.05 103 28.0917 103.75 26.875C104.5 25.6417 104.875 24.225 104.875 22.625C104.875 21.0083 104.5 19.5917 103.75 18.375C103 17.1583 101.958 16.2083 100.625 15.525C99.2917 14.825 97.75 14.475 96 14.475H88.675L89.825 13.35V31.9ZM116.781 32.3C115.198 32.3 113.798 31.9917 112.581 31.375C111.381 30.7583 110.439 29.9 109.756 28.8C109.089 27.7 108.756 26.4333 108.756 25C108.756 23.55 109.073 22.2833 109.706 21.2C110.356 20.1 111.248 19.2417 112.381 18.625C113.514 18.0083 114.831 17.7 116.331 17.7C117.781 17.7 119.056 18.0167 120.156 18.65C121.256 19.2833 122.114 20.1667 122.731 21.3C123.348 22.4167 123.656 23.7167 123.656 25.2H109.681V24H123.331L122.256 24.75C122.206 23.5833 121.931 22.5667 121.431 21.7C120.931 20.8333 120.239 20.1667 119.356 19.7C118.489 19.2167 117.481 18.975 116.331 18.975C115.081 18.975 113.989 19.225 113.056 19.725C112.139 20.225 111.423 20.925 110.906 21.825C110.406 22.725 110.156 23.7833 110.156 25C110.156 26.2167 110.431 27.275 110.981 28.175C111.531 29.075 112.298 29.775 113.281 30.275C114.281 30.775 115.448 31.025 116.781 31.025C118.014 31.025 119.173 30.8083 120.256 30.375C121.339 29.9417 122.331 29.3667 123.231 28.65V29.925C122.364 30.6583 121.348 31.2417 120.181 31.675C119.014 32.0917 117.881 32.3 116.781 32.3ZM126.672 18H128.022V23.75L127.922 24.125V25.825L128.022 26.4V36.125H126.672V18ZM127.147 25C127.547 23.55 128.139 22.2833 128.922 21.2C129.705 20.1 130.639 19.2417 131.722 18.625C132.805 18.0083 133.989 17.7 135.272 17.7C136.639 17.7 137.855 18.0083 138.922 18.625C139.989 19.2417 140.83 20.1 141.447 21.2C142.064 22.2833 142.372 23.55 142.372 25C142.372 26.4333 142.064 27.7 141.447 28.8C140.83 29.9 139.989 30.7583 138.922 31.375C137.855 31.9917 136.639 32.3 135.272 32.3C133.989 32.3 132.805 32 131.722 31.4C130.639 30.7833 129.705 29.925 128.922 28.825C128.139 27.725 127.547 26.45 127.147 25ZM140.972 25C140.972 23.8 140.722 22.75 140.222 21.85C139.739 20.95 139.064 20.25 138.197 19.75C137.347 19.2333 136.372 18.975 135.272 18.975C134.172 18.975 133.164 19.2333 132.247 19.75C131.33 20.25 130.514 20.95 129.797 21.85C129.08 22.75 128.48 23.8 127.997 25C128.48 26.1833 129.08 27.2333 129.797 28.15C130.514 29.05 131.33 29.7583 132.247 30.275C133.164 30.775 134.172 31.025 135.272 31.025C136.372 31.025 137.347 30.775 138.197 30.275C139.064 29.7583 139.739 29.05 140.222 28.15C140.722 27.2333 140.972 26.1833 140.972 25ZM159.07 32L158.62 26.625L159.22 25L158.62 23.375L159.07 18H160.42L159.845 25L160.42 32H159.07ZM159.845 25C159.445 26.45 158.853 27.725 158.07 28.825C157.287 29.925 156.353 30.7833 155.27 31.4C154.203 32 153.02 32.3 151.72 32.3C150.353 32.3 149.137 31.9917 148.07 31.375C147.003 30.7583 146.162 29.9 145.545 28.8C144.928 27.7 144.62 26.4333 144.62 25C144.62 23.55 144.928 22.2833 145.545 21.2C146.162 20.1 147.003 19.2417 148.07 18.625C149.137 18.0083 150.353 17.7 151.72 17.7C153.02 17.7 154.203 18.0083 155.27 18.625C156.353 19.2417 157.287 20.1 158.07 21.2C158.853 22.2833 159.445 23.55 159.845 25ZM146.02 25C146.02 26.1833 146.262 27.2333 146.745 28.15C147.245 29.05 147.92 29.7583 148.77 30.275C149.637 30.775 150.62 31.025 151.72 31.025C152.82 31.025 153.828 30.775 154.745 30.275C155.662 29.7583 156.478 29.05 157.195 28.15C157.912 27.2333 158.512 26.1833 158.995 25C158.512 23.8 157.912 22.75 157.195 21.85C156.478 20.95 155.662 20.25 154.745 19.75C153.828 19.2333 152.82 18.975 151.72 18.975C150.62 18.975 149.637 19.2333 148.77 19.75C147.92 20.25 147.245 20.95 146.745 21.85C146.262 22.75 146.02 23.8 146.02 25ZM163.522 18H164.872L165.622 22.475V32H164.272V22.225L163.522 18ZM173.422 18V19.325C173.156 19.225 172.814 19.15 172.397 19.1C171.981 19.0333 171.572 19 171.172 19C170.089 19 169.122 19.2583 168.272 19.775C167.439 20.275 166.789 20.9833 166.322 21.9C165.856 22.8167 165.622 23.875 165.622 25.075L165.072 24.2C165.072 23.2333 165.222 22.3583 165.522 21.575C165.822 20.775 166.247 20.0917 166.797 19.525C167.364 18.9417 168.022 18.4917 168.772 18.175C169.539 17.8583 170.381 17.7 171.297 17.7C171.681 17.7 172.072 17.7333 172.472 17.8C172.872 17.85 173.189 17.9167 173.422 18ZM173.941 19.225V18.475L177.091 18.1L177.591 14.425H178.441V18H185.591V19.225H178.441V27.375C178.441 28.725 178.741 29.675 179.341 30.225C179.958 30.7583 180.866 31.025 182.066 31.025C182.85 31.025 183.533 30.925 184.116 30.725C184.716 30.5083 185.3 30.2 185.866 29.8V31.2C185.5 31.4667 184.933 31.7167 184.166 31.95C183.416 32.1833 182.633 32.3 181.816 32.3C180.65 32.3 179.716 32.0917 179.016 31.675C178.333 31.2583 177.841 30.6917 177.541 29.975C177.241 29.2583 177.091 28.4667 177.091 27.6V19.225H173.941ZM201.453 32L201.003 26.625L201.603 25L201.003 23.375L201.453 18H202.803L202.228 25L202.803 32H201.453ZM202.228 25C201.828 26.45 201.236 27.725 200.453 28.825C199.67 29.925 198.736 30.7833 197.653 31.4C196.586 32 195.403 32.3 194.103 32.3C192.736 32.3 191.52 31.9917 190.453 31.375C189.386 30.7583 188.545 29.9 187.928 28.8C187.311 27.7 187.003 26.4333 187.003 25C187.003 23.55 187.311 22.2833 187.928 21.2C188.545 20.1 189.386 19.2417 190.453 18.625C191.52 18.0083 192.736 17.7 194.103 17.7C195.403 17.7 196.586 18.0083 197.653 18.625C198.736 19.2417 199.67 20.1 200.453 21.2C201.236 22.2833 201.828 23.55 202.228 25ZM188.403 25C188.403 26.1833 188.645 27.2333 189.128 28.15C189.628 29.05 190.303 29.7583 191.153 30.275C192.02 30.775 193.003 31.025 194.103 31.025C195.203 31.025 196.211 30.775 197.128 30.275C198.045 29.7583 198.861 29.05 199.578 28.15C200.295 27.2333 200.895 26.1833 201.378 25C200.895 23.8 200.295 22.75 199.578 21.85C198.861 20.95 198.045 20.25 197.128 19.75C196.211 19.2333 195.203 18.975 194.103 18.975C193.003 18.975 192.02 19.2333 191.153 19.75C190.303 20.25 189.628 20.95 189.128 21.85C188.645 22.75 188.403 23.8 188.403 25ZM205.905 18H207.255L208.005 22.475V32H206.655V22.275L205.905 18ZM213.53 17.7C214.714 17.7 215.722 17.9583 216.555 18.475C217.389 18.9917 218.022 19.75 218.455 20.75C218.889 21.7333 219.105 22.9333 219.105 24.35V32H217.755V24.625C217.755 22.7417 217.372 21.325 216.605 20.375C215.839 19.4083 214.714 18.925 213.23 18.925C212.18 18.925 211.264 19.1833 210.48 19.7C209.697 20.2167 209.089 20.9417 208.655 21.875C208.222 22.7917 208.005 23.8583 208.005 25.075L207.305 24.4C207.389 23.05 207.697 21.875 208.23 20.875C208.78 19.875 209.505 19.1 210.405 18.55C211.322 17.9833 212.364 17.7 213.53 17.7ZM224.63 17.7C225.814 17.7 226.822 17.9583 227.655 18.475C228.489 18.9917 229.122 19.75 229.555 20.75C229.989 21.7333 230.205 22.9333 230.205 24.35V32H228.855V24.625C228.855 22.7417 228.472 21.325 227.705 20.375C226.939 19.4083 225.814 18.925 224.33 18.925C223.28 18.925 222.364 19.1833 221.58 19.7C220.797 20.2167 220.189 20.9417 219.755 21.875C219.322 22.7917 219.105 23.8583 219.105 25.075L218.405 24.4C218.489 23.05 218.797 21.875 219.33 20.875C219.88 19.875 220.605 19.1 221.505 18.55C222.422 17.9833 223.464 17.7 224.63 17.7ZM241.146 32.3C239.563 32.3 238.163 31.9917 236.946 31.375C235.746 30.7583 234.804 29.9 234.121 28.8C233.454 27.7 233.121 26.4333 233.121 25C233.121 23.55 233.438 22.2833 234.071 21.2C234.721 20.1 235.613 19.2417 236.746 18.625C237.879 18.0083 239.196 17.7 240.696 17.7C242.146 17.7 243.421 18.0167 244.521 18.65C245.621 19.2833 246.479 20.1667 247.096 21.3C247.713 22.4167 248.021 23.7167 248.021 25.2H234.046V24H247.696L246.621 24.75C246.571 23.5833 246.296 22.5667 245.796 21.7C245.296 20.8333 244.604 20.1667 243.721 19.7C242.854 19.2167 241.846 18.975 240.696 18.975C239.446 18.975 238.354 19.225 237.421 19.725C236.504 20.225 235.788 20.925 235.271 21.825C234.771 22.725 234.521 23.7833 234.521 25C234.521 26.2167 234.796 27.275 235.346 28.175C235.896 29.075 236.663 29.775 237.646 30.275C238.646 30.775 239.813 31.025 241.146 31.025C242.379 31.025 243.538 30.8083 244.621 30.375C245.704 29.9417 246.696 29.3667 247.596 28.65V29.925C246.729 30.6583 245.713 31.2417 244.546 31.675C243.379 32.0917 242.246 32.3 241.146 32.3ZM250.412 18H251.762L252.512 22.475V32H251.162V22.275L250.412 18ZM258.537 17.7C259.837 17.7 260.937 17.9583 261.837 18.475C262.737 18.9917 263.42 19.75 263.887 20.75C264.37 21.7333 264.612 22.9333 264.612 24.35V32H263.262V24.625C263.262 22.7417 262.837 21.325 261.987 20.375C261.137 19.4083 259.887 18.925 258.237 18.925C257.087 18.925 256.079 19.1833 255.212 19.7C254.362 20.2167 253.695 20.9417 253.212 21.875C252.745 22.7917 252.512 23.8583 252.512 25.075L251.812 24.4C251.895 23.05 252.229 21.875 252.812 20.875C253.395 19.875 254.179 19.1 255.162 18.55C256.145 17.9833 257.27 17.7 258.537 17.7ZM266.226 19.225V18.475L269.376 18.1L269.876 14.425H270.726V18H277.876V19.225H270.726V27.375C270.726 28.725 271.026 29.675 271.626 30.225C272.243 30.7583 273.151 31.025 274.351 31.025C275.135 31.025 275.818 30.925 276.401 30.725C277.001 30.5083 277.585 30.2 278.151 29.8V31.2C277.785 31.4667 277.218 31.7167 276.451 31.95C275.701 32.1833 274.918 32.3 274.101 32.3C272.935 32.3 272.001 32.0917 271.301 31.675C270.618 31.2583 270.126 30.6917 269.826 29.975C269.526 29.2583 269.376 28.4667 269.376 27.6V19.225H266.226ZM287.363 32.3C285.763 32.3 284.355 31.9917 283.138 31.375C281.921 30.7583 280.971 29.9 280.288 28.8C279.605 27.7 279.263 26.4333 279.263 25C279.263 23.55 279.605 22.2833 280.288 21.2C280.971 20.1 281.921 19.2417 283.138 18.625C284.355 18.0083 285.763 17.7 287.363 17.7C288.963 17.7 290.371 18.0083 291.588 18.625C292.805 19.2417 293.755 20.1 294.438 21.2C295.121 22.2833 295.463 23.55 295.463 25C295.463 26.4333 295.121 27.7 294.438 28.8C293.755 29.9 292.805 30.7583 291.588 31.375C290.371 31.9917 288.963 32.3 287.363 32.3ZM287.363 31.025C288.73 31.025 289.913 30.775 290.913 30.275C291.913 29.775 292.688 29.075 293.238 28.175C293.788 27.275 294.063 26.2167 294.063 25C294.063 23.7833 293.788 22.725 293.238 21.825C292.688 20.925 291.913 20.225 290.913 19.725C289.913 19.225 288.73 18.975 287.363 18.975C286.013 18.975 284.83 19.225 283.813 19.725C282.813 20.225 282.038 20.925 281.488 21.825C280.938 22.725 280.663 23.7833 280.663 25C280.663 26.2167 280.938 27.275 281.488 28.175C282.038 29.075 282.813 29.775 283.813 30.275C284.83 30.775 286.013 31.025 287.363 31.025Z" fill="#FCCD8C"/>
</svg>
